<svg width="1200" height="800" viewBox="0 0 1200 800" xmlns="http://www.w3.org/2000/svg">
  <defs>
    <linearGradient id="parchment" x1="0" x2="0" y1="0" y2="1">
      <stop offset="0%" stop-color="#f8e5ba"/>
      <stop offset="100%" stop-color="#cfa676"/>
    </linearGradient>
    <filter id="noise" x="0" y="0" width="100%" height="100%">
      <feTurbulence type="fractalNoise" baseFrequency="0.7" numOctaves="3" result="noise" />
      <feColorMatrix type="saturate" values="0.25" />
    </filter>
  </defs>
  <rect width="1200" height="800" rx="80" fill="url(#parchment)" filter="url(#noise)" />
  <rect x="80" y="80" width="1040" height="640" rx="52" fill="none" stroke="#7a4f22" stroke-width="18" />
  <path d="M420 220 C520 160 680 170 780 230 C860 280 860 380 780 430 C700 470 620 460 560 410 C500 360 440 300 420 220 Z" fill="#84603a" opacity="0.85" />
  <path d="M500 440 C540 390 600 370 650 410 C690 450 690 520 650 560 C620 590 570 590 540 560 C500 520 500 470 500 440 Z" fill="#6b4524" />
  <path d="M460 520 C520 460 620 440 690 470" fill="none" stroke="#442b18" stroke-width="16" stroke-linecap="round" />
  <text x="120" y="730" font-family="Georgia, serif" font-size="62" fill="#64411c" letter-spacing="3">Guardian Crest</text>
</svg>
